<svg width="24" height="24" viewBox="0 0 24 24" fill="none" xmlns="http://www.w3.org/2000/svg">
<path d="M12 24C18.6274 24 24 18.6274 24 12C24 5.37256 18.6274 0 12 0C5.37256 0 0 5.37256 0 12C0.00745161 18.6243 5.37566 23.9925 12 24ZM12 0.774194C18.1998 0.774194 23.2258 5.80016 23.2258 12C23.2258 18.1998 18.1998 23.2258 12 23.2258C5.80016 23.2258 0.774194 18.1998 0.774194 12C0.78121 5.80306 5.80306 0.78121 12 0.774194Z" fill="#825EA9"/>
<path d="M4.64515 12.3871H11.6129V19.3548C11.6129 19.5686 11.7862 19.7419 12 19.7419C12.2138 19.7419 12.3871 19.5686 12.3871 19.3548V12.3871H19.3548C19.5686 12.3871 19.7419 12.2138 19.7419 12C19.7419 11.7862 19.5686 11.6129 19.3548 11.6129H12.3871V4.64515C12.3871 4.43138 12.2138 4.25806 12 4.25806C11.7862 4.25806 11.6129 4.43138 11.6129 4.64515V11.6129H4.64515C4.43138 11.6129 4.25806 11.7862 4.25806 12C4.25806 12.2138 4.43138 12.3871 4.64515 12.3871Z" fill="#825EA9"/>
</svg>
