<svg width="43" height="29" viewBox="0 0 43 29" fill="none" xmlns="http://www.w3.org/2000/svg">
<path fill-rule="evenodd" clip-rule="evenodd" d="M13.7834 14.5028L13.7393 14.4587L18.4803 9.71765L14.4195 5.65686L5.65686 14.4196L14.4195 23.1823L18.3636 19.2382L16.5342 17.4088L13.7057 14.5804L13.7834 14.5028ZM17.248 2.82849L21.3528 6.93335L25.2968 2.98938L28.1253 0.160889L30.9537 2.98938L39.7164 11.7521L42.5448 14.5804L39.7164 17.4088L30.9537 26.1715L28.1253 29L25.2968 26.1715L21.192 22.0667L17.248 26.0106L14.4195 28.8391L11.5911 26.0106L2.82843 17.2479L0 14.4196L2.82843 11.5912L11.5911 2.82849L14.4195 0L17.248 2.82849ZM26.0106 17.2479L24.0204 19.2382L28.1253 23.3431L36.8879 14.5804L28.1253 5.81775L24.1812 9.76184L26.0106 11.5912L28.8391 14.4196L26.0106 17.2479Z" fill="url(#paint0_linear)"/>
<defs>
<linearGradient id="paint0_linear" x1="24.9865" y1="10.7097" x2="17.4884" y2="18.2078" gradientUnits="userSpaceOnUse">
<stop stop-color="#DA22FF"/>
<stop offset="1" stop-color="#9733EE"/>
</linearGradient>
</defs>
</svg>
