<svg width="24" height="24" viewBox="0 0 24 24" fill="none" xmlns="http://www.w3.org/2000/svg">
<path fill-rule="evenodd" clip-rule="evenodd" d="M8.48528 4.89944L1.41421 11.9705L8.48528 19.0416L11.2782 16.2487L7.70711 12.6776L7 11.9705L7.00302 11.9675L7 11.9645L11.2752 7.68932L8.48528 4.89944ZM9.19239 19.7487L11.9853 16.9558L14.7782 19.7487L15.4853 20.4558L16.1924 19.7487L23.2635 12.6776L23.9706 11.9705L23.2635 11.2634L16.1924 4.19234L15.4853 3.48523L14.7782 4.19234L11.9853 6.98523L9.19239 4.19234L8.48528 3.48523L7.77817 4.19234L0.707107 11.2634L0 11.9705L0.707107 12.6776L7.77817 19.7487L8.48528 20.4558L9.19239 19.7487ZM15.4853 4.89944L12.6924 7.69234L16.2635 11.2634L16.9706 11.9705L16.2635 12.6776L12.6924 16.2487L15.4853 19.0416L22.5563 11.9705L15.4853 4.89944Z" fill="white"/>
</svg>
