<svg width="40" height="28" viewBox="0 0 40 28" fill="none" xmlns="http://www.w3.org/2000/svg">
<path fill-rule="evenodd" clip-rule="evenodd" d="M12.9589 13.6353L12.9175 13.5939L17.2058 9.30559L13.557 5.65685L5.65685 13.557L13.557 21.4572L17.0959 17.9183L15.7144 16.5367L12.886 13.7083L12.9589 13.6353ZM16.3855 2.82843L20.0756 6.51861L23.6145 2.97969L26.443 0.151265L29.2714 2.97969L37.1716 10.8799L40 13.7083L37.1716 16.5367L29.2714 24.4369L26.443 27.2653L23.6145 24.4369L19.9244 20.7467L16.3855 24.2856L13.557 27.1141L10.7286 24.2856L2.82843 16.3855L0 13.557L2.82843 10.7286L10.7286 2.82843L13.557 0L16.3855 2.82843ZM24.2856 16.3855L22.7528 17.9183L26.443 21.6085L34.3432 13.7083L26.443 5.80812L22.9041 9.34704L24.2856 10.7286L27.114 13.557L24.2856 16.3855Z" fill="white"/>
</svg>
