<svg width="33" height="26" viewBox="0 0 33 26" fill="none" xmlns="http://www.w3.org/2000/svg">
<path d="M31.1296 11.25H1.26543C0.566534 11.25 0 11.8796 0 12.6562C0 13.4329 0.566534 14.0625 1.26543 14.0625H31.1296C31.8285 14.0625 32.3951 13.4329 32.3951 12.6562C32.3951 11.8796 31.8285 11.25 31.1296 11.25Z" fill="white"/>
<path d="M31.1296 0H1.26543C0.566534 0 0 0.629578 0 1.40625C0 2.18292 0.566534 2.8125 1.26543 2.8125H31.1296C31.8285 2.8125 32.3951 2.18292 32.3951 1.40625C32.3951 0.629578 31.8285 0 31.1296 0Z" fill="white"/>
<path d="M31.1296 22.5H1.26543C0.566534 22.5 0 23.1296 0 23.9062C0 24.6829 0.566534 25.3125 1.26543 25.3125H31.1296C31.8285 25.3125 32.3951 24.6829 32.3951 23.9062C32.3951 23.1296 31.8285 22.5 31.1296 22.5Z" fill="white"/>
</svg>
