<svg width="24" height="24" viewBox="0 0 24 24" fill="none" xmlns="http://www.w3.org/2000/svg">
<path d="M23.0625 10.9062H0.9375C0.419719 10.9062 0 11.3487 0 11.8945C0 12.4404 0.419719 12.8828 0.9375 12.8828H23.0625C23.5803 12.8828 24 12.4404 24 11.8945C24 11.3487 23.5803 10.9062 23.0625 10.9062Z" fill="white"/>
<path d="M23.0625 3H0.9375C0.419719 3 0 3.44246 0 3.98829C0 4.53412 0.419719 4.97657 0.9375 4.97657H23.0625C23.5803 4.97657 24 4.53412 24 3.98829C24 3.44246 23.5803 3 23.0625 3Z" fill="white"/>
<path d="M23.0625 18.8126H0.9375C0.419719 18.8126 0 19.2551 0 19.8009C0 20.3467 0.419719 20.7892 0.9375 20.7892H23.0625C23.5803 20.7892 24 20.3467 24 19.8009C24 19.2551 23.5803 18.8126 23.0625 18.8126Z" fill="white"/>
</svg>
